<?xml version="1.0" encoding="UTF-8" standalone="no"?>
<!DOCTYPE svg PUBLIC "-//W3C//DTD SVG 1.1//EN"
 "http://www.w3.org/Graphics/SVG/1.1/DTD/svg11.dtd">
<!-- Generated by graphviz version 2.26.3 (20100126.1600)
 -->
<!-- Title: models_diagram Pages: 1 -->
<svg width="1004pt" height="930pt"
 viewBox="0.00 0.00 1004.00 930.00" xmlns="http://www.w3.org/2000/svg" xmlns:xlink="http://www.w3.org/1999/xlink">
<g id="graph1" class="graph" transform="scale(1 1) rotate(0) translate(4 926)">
<title>models_diagram</title>
<polygon fill="white" stroke="white" points="-4,5 -4,-926 1001,-926 1001,5 -4,5"/>
<!-- _diagram_info -->
<g id="node1" class="node"><title>_diagram_info</title>
<text text-anchor="start" x="149" y="-905.8" font-family="Times Roman,serif" font-size="13.00">Models diagram</text>
<text text-anchor="start" x="149" y="-888.8" font-family="Times Roman,serif" font-size="13.00">Date: May 08 2014 &#45; 19:39</text>
<text text-anchor="start" x="149" y="-871.8" font-family="Times Roman,serif" font-size="13.00">Migration version: 20140508121310</text>
<text text-anchor="start" x="149" y="-854.8" font-family="Times Roman,serif" font-size="13.00">Generated by RailRoady 1.1.1</text>
<text text-anchor="start" x="149" y="-837.8" font-family="Times Roman,serif" font-size="13.00">http://railroady.prestonlee.com</text>
</g>
<!-- AdminUser -->
<g id="node2" class="node"><title>AdminUser</title>
<polyline fill="none" stroke="black" points="12,-496 242,-496 "/>
<path fill="none" stroke="black" d="M242,-496C248,-496 254,-502 254,-508"/>
<polyline fill="none" stroke="black" points="254,-508 254,-752 "/>
<path fill="none" stroke="black" d="M254,-752C254,-758 248,-764 242,-764"/>
<polyline fill="none" stroke="black" points="242,-764 12,-764 "/>
<path fill="none" stroke="black" d="M12,-764C6,-764 0,-758 0,-752"/>
<polyline fill="none" stroke="black" points="0,-752 0,-508 "/>
<path fill="none" stroke="black" d="M0,-508C0,-502 6,-496 12,-496"/>
<text text-anchor="middle" x="127" y="-747.4" font-family="Times Roman,serif" font-size="14.00">AdminUser</text>
<polyline fill="none" stroke="black" points="0,-738 254,-738 "/>
<text text-anchor="start" x="8" y="-721.4" font-family="Times Roman,serif" font-size="14.00">id :integer</text>
<text text-anchor="start" x="8" y="-703.4" font-family="Times Roman,serif" font-size="14.00">email :string</text>
<text text-anchor="start" x="8" y="-685.4" font-family="Times Roman,serif" font-size="14.00">encrypted_password :string</text>
<text text-anchor="start" x="8" y="-667.4" font-family="Times Roman,serif" font-size="14.00">reset_password_token :string</text>
<text text-anchor="start" x="8" y="-649.4" font-family="Times Roman,serif" font-size="14.00">reset_password_sent_at :datetime</text>
<text text-anchor="start" x="8" y="-631.4" font-family="Times Roman,serif" font-size="14.00">remember_created_at :datetime</text>
<text text-anchor="start" x="8" y="-613.4" font-family="Times Roman,serif" font-size="14.00">sign_in_count :integer</text>
<text text-anchor="start" x="8" y="-595.4" font-family="Times Roman,serif" font-size="14.00">current_sign_in_at :datetime</text>
<text text-anchor="start" x="8" y="-577.4" font-family="Times Roman,serif" font-size="14.00">last_sign_in_at :datetime</text>
<text text-anchor="start" x="8" y="-559.4" font-family="Times Roman,serif" font-size="14.00">current_sign_in_ip :string</text>
<text text-anchor="start" x="8" y="-541.4" font-family="Times Roman,serif" font-size="14.00">last_sign_in_ip :string</text>
<text text-anchor="start" x="8" y="-523.4" font-family="Times Roman,serif" font-size="14.00">created_at :datetime</text>
<text text-anchor="start" x="8" y="-505.4" font-family="Times Roman,serif" font-size="14.00">updated_at :datetime</text>
</g>
<!-- Ckeditor::Asset -->
<g id="node3" class="node"><title>Ckeditor::Asset</title>
<polyline fill="none" stroke="black" points="283.5,-514 454.5,-514 "/>
<path fill="none" stroke="black" d="M454.5,-514C460.5,-514 466.5,-520 466.5,-526"/>
<polyline fill="none" stroke="black" points="466.5,-526 466.5,-734 "/>
<path fill="none" stroke="black" d="M466.5,-734C466.5,-740 460.5,-746 454.5,-746"/>
<polyline fill="none" stroke="black" points="454.5,-746 283.5,-746 "/>
<path fill="none" stroke="black" d="M283.5,-746C277.5,-746 271.5,-740 271.5,-734"/>
<polyline fill="none" stroke="black" points="271.5,-734 271.5,-526 "/>
<path fill="none" stroke="black" d="M271.5,-526C271.5,-520 277.5,-514 283.5,-514"/>
<text text-anchor="middle" x="369" y="-729.4" font-family="Times Roman,serif" font-size="14.00">Ckeditor::Asset</text>
<polyline fill="none" stroke="black" points="271.5,-720 466.5,-720 "/>
<text text-anchor="start" x="279.5" y="-703.4" font-family="Times Roman,serif" font-size="14.00">id :integer</text>
<text text-anchor="start" x="279.5" y="-685.4" font-family="Times Roman,serif" font-size="14.00">data_file_name :string</text>
<text text-anchor="start" x="279.5" y="-667.4" font-family="Times Roman,serif" font-size="14.00">data_content_type :string</text>
<text text-anchor="start" x="279.5" y="-649.4" font-family="Times Roman,serif" font-size="14.00">data_file_size :integer</text>
<text text-anchor="start" x="279.5" y="-631.4" font-family="Times Roman,serif" font-size="14.00">assetable_id :integer</text>
<text text-anchor="start" x="279.5" y="-613.4" font-family="Times Roman,serif" font-size="14.00">assetable_type :string</text>
<text text-anchor="start" x="279.5" y="-595.4" font-family="Times Roman,serif" font-size="14.00">type :string</text>
<text text-anchor="start" x="279.5" y="-577.4" font-family="Times Roman,serif" font-size="14.00">width :integer</text>
<text text-anchor="start" x="279.5" y="-559.4" font-family="Times Roman,serif" font-size="14.00">height :integer</text>
<text text-anchor="start" x="279.5" y="-541.4" font-family="Times Roman,serif" font-size="14.00">created_at :datetime</text>
<text text-anchor="start" x="279.5" y="-523.4" font-family="Times Roman,serif" font-size="14.00">updated_at :datetime</text>
</g>
<!-- Ckeditor::Picture -->
<g id="node4" class="node"><title>Ckeditor::Picture</title>
<polyline fill="none" stroke="black" points="71.5,-190 242.5,-190 "/>
<path fill="none" stroke="black" d="M242.5,-190C248.5,-190 254.5,-196 254.5,-202"/>
<polyline fill="none" stroke="black" points="254.5,-202 254.5,-410 "/>
<path fill="none" stroke="black" d="M254.5,-410C254.5,-416 248.5,-422 242.5,-422"/>
<polyline fill="none" stroke="black" points="242.5,-422 71.5,-422 "/>
<path fill="none" stroke="black" d="M71.5,-422C65.5,-422 59.5,-416 59.5,-410"/>
<polyline fill="none" stroke="black" points="59.5,-410 59.5,-202 "/>
<path fill="none" stroke="black" d="M59.5,-202C59.5,-196 65.5,-190 71.5,-190"/>
<text text-anchor="middle" x="157" y="-405.4" font-family="Times Roman,serif" font-size="14.00">Ckeditor::Picture</text>
<polyline fill="none" stroke="black" points="59.5,-396 254.5,-396 "/>
<text text-anchor="start" x="67.5" y="-379.4" font-family="Times Roman,serif" font-size="14.00">id :integer</text>
<text text-anchor="start" x="67.5" y="-361.4" font-family="Times Roman,serif" font-size="14.00">data_file_name :string</text>
<text text-anchor="start" x="67.5" y="-343.4" font-family="Times Roman,serif" font-size="14.00">data_content_type :string</text>
<text text-anchor="start" x="67.5" y="-325.4" font-family="Times Roman,serif" font-size="14.00">data_file_size :integer</text>
<text text-anchor="start" x="67.5" y="-307.4" font-family="Times Roman,serif" font-size="14.00">assetable_id :integer</text>
<text text-anchor="start" x="67.5" y="-289.4" font-family="Times Roman,serif" font-size="14.00">assetable_type :string</text>
<text text-anchor="start" x="67.5" y="-271.4" font-family="Times Roman,serif" font-size="14.00">type :string</text>
<text text-anchor="start" x="67.5" y="-253.4" font-family="Times Roman,serif" font-size="14.00">width :integer</text>
<text text-anchor="start" x="67.5" y="-235.4" font-family="Times Roman,serif" font-size="14.00">height :integer</text>
<text text-anchor="start" x="67.5" y="-217.4" font-family="Times Roman,serif" font-size="14.00">created_at :datetime</text>
<text text-anchor="start" x="67.5" y="-199.4" font-family="Times Roman,serif" font-size="14.00">updated_at :datetime</text>
</g>
<!-- Ckeditor::Asset&#45;&gt;Ckeditor::Picture -->
<g id="edge6" class="edge"><title>Ckeditor::Asset&#45;&gt;Ckeditor::Picture</title>
<path fill="none" stroke="black" d="M293.062,-513.944C273.518,-484.074 252.487,-451.933 232.942,-422.063"/>
</g>
<!-- Ckeditor::AttachmentFile -->
<g id="node5" class="node"><title>Ckeditor::AttachmentFile</title>
<polyline fill="none" stroke="black" points="283.5,-190 454.5,-190 "/>
<path fill="none" stroke="black" d="M454.5,-190C460.5,-190 466.5,-196 466.5,-202"/>
<polyline fill="none" stroke="black" points="466.5,-202 466.5,-410 "/>
<path fill="none" stroke="black" d="M466.5,-410C466.5,-416 460.5,-422 454.5,-422"/>
<polyline fill="none" stroke="black" points="454.5,-422 283.5,-422 "/>
<path fill="none" stroke="black" d="M283.5,-422C277.5,-422 271.5,-416 271.5,-410"/>
<polyline fill="none" stroke="black" points="271.5,-410 271.5,-202 "/>
<path fill="none" stroke="black" d="M271.5,-202C271.5,-196 277.5,-190 283.5,-190"/>
<text text-anchor="middle" x="369" y="-405.4" font-family="Times Roman,serif" font-size="14.00">Ckeditor::AttachmentFile</text>
<polyline fill="none" stroke="black" points="271.5,-396 466.5,-396 "/>
<text text-anchor="start" x="279.5" y="-379.4" font-family="Times Roman,serif" font-size="14.00">id :integer</text>
<text text-anchor="start" x="279.5" y="-361.4" font-family="Times Roman,serif" font-size="14.00">data_file_name :string</text>
<text text-anchor="start" x="279.5" y="-343.4" font-family="Times Roman,serif" font-size="14.00">data_content_type :string</text>
<text text-anchor="start" x="279.5" y="-325.4" font-family="Times Roman,serif" font-size="14.00">data_file_size :integer</text>
<text text-anchor="start" x="279.5" y="-307.4" font-family="Times Roman,serif" font-size="14.00">assetable_id :integer</text>
<text text-anchor="start" x="279.5" y="-289.4" font-family="Times Roman,serif" font-size="14.00">assetable_type :string</text>
<text text-anchor="start" x="279.5" y="-271.4" font-family="Times Roman,serif" font-size="14.00">type :string</text>
<text text-anchor="start" x="279.5" y="-253.4" font-family="Times Roman,serif" font-size="14.00">width :integer</text>
<text text-anchor="start" x="279.5" y="-235.4" font-family="Times Roman,serif" font-size="14.00">height :integer</text>
<text text-anchor="start" x="279.5" y="-217.4" font-family="Times Roman,serif" font-size="14.00">created_at :datetime</text>
<text text-anchor="start" x="279.5" y="-199.4" font-family="Times Roman,serif" font-size="14.00">updated_at :datetime</text>
</g>
<!-- Ckeditor::Asset&#45;&gt;Ckeditor::AttachmentFile -->
<g id="edge8" class="edge"><title>Ckeditor::Asset&#45;&gt;Ckeditor::AttachmentFile</title>
<path fill="none" stroke="black" d="M369,-513.944C369,-484.074 369,-451.933 369,-422.063"/>
</g>
<!-- ArticleComment -->
<g id="node6" class="node"><title>ArticleComment</title>
<polyline fill="none" stroke="black" points="487.5,-1 628.5,-1 "/>
<path fill="none" stroke="black" d="M628.5,-1C634.5,-1 640.5,-7 640.5,-13"/>
<polyline fill="none" stroke="black" points="640.5,-13 640.5,-131 "/>
<path fill="none" stroke="black" d="M640.5,-131C640.5,-137 634.5,-143 628.5,-143"/>
<polyline fill="none" stroke="black" points="628.5,-143 487.5,-143 "/>
<path fill="none" stroke="black" d="M487.5,-143C481.5,-143 475.5,-137 475.5,-131"/>
<polyline fill="none" stroke="black" points="475.5,-131 475.5,-13 "/>
<path fill="none" stroke="black" d="M475.5,-13C475.5,-7 481.5,-1 487.5,-1"/>
<text text-anchor="middle" x="558" y="-126.4" font-family="Times Roman,serif" font-size="14.00">ArticleComment</text>
<polyline fill="none" stroke="black" points="475.5,-117 640.5,-117 "/>
<text text-anchor="start" x="483.5" y="-100.4" font-family="Times Roman,serif" font-size="14.00">id :integer</text>
<text text-anchor="start" x="483.5" y="-82.4" font-family="Times Roman,serif" font-size="14.00">article_id :integer</text>
<text text-anchor="start" x="483.5" y="-64.4" font-family="Times Roman,serif" font-size="14.00">user_id :integer</text>
<text text-anchor="start" x="483.5" y="-46.4" font-family="Times Roman,serif" font-size="14.00">content :text</text>
<text text-anchor="start" x="483.5" y="-28.4" font-family="Times Roman,serif" font-size="14.00">created_at :datetime</text>
<text text-anchor="start" x="483.5" y="-10.4" font-family="Times Roman,serif" font-size="14.00">updated_at :datetime</text>
</g>
<!-- Article -->
<g id="node7" class="node"><title>Article</title>
<polyline fill="none" stroke="black" points="552.5,-181 693.5,-181 "/>
<path fill="none" stroke="black" d="M693.5,-181C699.5,-181 705.5,-187 705.5,-193"/>
<polyline fill="none" stroke="black" points="705.5,-193 705.5,-419 "/>
<path fill="none" stroke="black" d="M705.5,-419C705.5,-425 699.5,-431 693.5,-431"/>
<polyline fill="none" stroke="black" points="693.5,-431 552.5,-431 "/>
<path fill="none" stroke="black" d="M552.5,-431C546.5,-431 540.5,-425 540.5,-419"/>
<polyline fill="none" stroke="black" points="540.5,-419 540.5,-193 "/>
<path fill="none" stroke="black" d="M540.5,-193C540.5,-187 546.5,-181 552.5,-181"/>
<text text-anchor="middle" x="623" y="-414.4" font-family="Times Roman,serif" font-size="14.00">Article</text>
<polyline fill="none" stroke="black" points="540.5,-405 705.5,-405 "/>
<text text-anchor="start" x="548.5" y="-388.4" font-family="Times Roman,serif" font-size="14.00">id :integer</text>
<text text-anchor="start" x="548.5" y="-370.4" font-family="Times Roman,serif" font-size="14.00">user_id :integer</text>
<text text-anchor="start" x="548.5" y="-352.4" font-family="Times Roman,serif" font-size="14.00">title_id :string</text>
<text text-anchor="start" x="548.5" y="-334.4" font-family="Times Roman,serif" font-size="14.00">title_en :string</text>
<text text-anchor="start" x="548.5" y="-316.4" font-family="Times Roman,serif" font-size="14.00">content_id :text</text>
<text text-anchor="start" x="548.5" y="-298.4" font-family="Times Roman,serif" font-size="14.00">content_en :text</text>
<text text-anchor="start" x="548.5" y="-280.4" font-family="Times Roman,serif" font-size="14.00">is_active :boolean</text>
<text text-anchor="start" x="548.5" y="-262.4" font-family="Times Roman,serif" font-size="14.00">viewed :integer</text>
<text text-anchor="start" x="548.5" y="-244.4" font-family="Times Roman,serif" font-size="14.00">created_at :datetime</text>
<text text-anchor="start" x="548.5" y="-226.4" font-family="Times Roman,serif" font-size="14.00">updated_at :datetime</text>
<text text-anchor="start" x="548.5" y="-208.4" font-family="Times Roman,serif" font-size="14.00">slug :string</text>
<text text-anchor="start" x="548.5" y="-190.4" font-family="Times Roman,serif" font-size="14.00">category_id :integer</text>
</g>
<!-- Article&#45;&gt;ArticleComment -->
<g id="edge12" class="edge"><title>Article&#45;&gt;ArticleComment</title>
<path fill="none" stroke="#9f5955" d="M586.034,-172.922C584.167,-166.202 582.321,-159.554 580.519,-153.069"/>
<ellipse fill="none" stroke="#9f5955" cx="587.146" cy="-176.925" rx="4.00001" ry="4.00001"/>
<polygon fill="#9f5955" stroke="#9f5955" points="580.406,-152.662 582.065,-141.822 579.068,-147.844 577.73,-143.027 577.73,-143.027 577.73,-143.027 579.068,-147.844 573.394,-144.231 580.406,-152.662 580.406,-152.662"/>
</g>
<!-- Category -->
<g id="node8" class="node"><title>Category</title>
<polyline fill="none" stroke="black" points="571.5,-577 712.5,-577 "/>
<path fill="none" stroke="black" d="M712.5,-577C718.5,-577 724.5,-583 724.5,-589"/>
<polyline fill="none" stroke="black" points="724.5,-589 724.5,-671 "/>
<path fill="none" stroke="black" d="M724.5,-671C724.5,-677 718.5,-683 712.5,-683"/>
<polyline fill="none" stroke="black" points="712.5,-683 571.5,-683 "/>
<path fill="none" stroke="black" d="M571.5,-683C565.5,-683 559.5,-677 559.5,-671"/>
<polyline fill="none" stroke="black" points="559.5,-671 559.5,-589 "/>
<path fill="none" stroke="black" d="M559.5,-589C559.5,-583 565.5,-577 571.5,-577"/>
<text text-anchor="middle" x="642" y="-666.4" font-family="Times Roman,serif" font-size="14.00">Category</text>
<polyline fill="none" stroke="black" points="559.5,-657 724.5,-657 "/>
<text text-anchor="start" x="567.5" y="-640.4" font-family="Times Roman,serif" font-size="14.00">id :integer</text>
<text text-anchor="start" x="567.5" y="-622.4" font-family="Times Roman,serif" font-size="14.00">name :string</text>
<text text-anchor="start" x="567.5" y="-604.4" font-family="Times Roman,serif" font-size="14.00">created_at :datetime</text>
<text text-anchor="start" x="567.5" y="-586.4" font-family="Times Roman,serif" font-size="14.00">updated_at :datetime</text>
</g>
<!-- Category&#45;&gt;Article -->
<g id="edge16" class="edge"><title>Category&#45;&gt;Article</title>
<path fill="none" stroke="#6d6e3c" d="M638.41,-568.786C636.296,-532.734 633.534,-485.633 630.933,-441.281"/>
<ellipse fill="none" stroke="#6d6e3c" cx="638.65" cy="-572.868" rx="4" ry="4"/>
<polygon fill="#6d6e3c" stroke="#6d6e3c" points="630.932,-441.253 634.838,-431.007 630.639,-436.262 630.346,-431.27 630.346,-431.27 630.346,-431.27 630.639,-436.262 625.854,-431.534 630.932,-441.253 630.932,-441.253"/>
</g>
<!-- User -->
<g id="node9" class="node"><title>User</title>
<polyline fill="none" stroke="black" points="754,-469 984,-469 "/>
<path fill="none" stroke="black" d="M984,-469C990,-469 996,-475 996,-481"/>
<polyline fill="none" stroke="black" points="996,-481 996,-779 "/>
<path fill="none" stroke="black" d="M996,-779C996,-785 990,-791 984,-791"/>
<polyline fill="none" stroke="black" points="984,-791 754,-791 "/>
<path fill="none" stroke="black" d="M754,-791C748,-791 742,-785 742,-779"/>
<polyline fill="none" stroke="black" points="742,-779 742,-481 "/>
<path fill="none" stroke="black" d="M742,-481C742,-475 748,-469 754,-469"/>
<text text-anchor="middle" x="869" y="-774.4" font-family="Times Roman,serif" font-size="14.00">User</text>
<polyline fill="none" stroke="black" points="742,-765 996,-765 "/>
<text text-anchor="start" x="750" y="-748.4" font-family="Times Roman,serif" font-size="14.00">id :integer</text>
<text text-anchor="start" x="750" y="-730.4" font-family="Times Roman,serif" font-size="14.00">email :string</text>
<text text-anchor="start" x="750" y="-712.4" font-family="Times Roman,serif" font-size="14.00">encrypted_password :string</text>
<text text-anchor="start" x="750" y="-694.4" font-family="Times Roman,serif" font-size="14.00">reset_password_token :string</text>
<text text-anchor="start" x="750" y="-676.4" font-family="Times Roman,serif" font-size="14.00">reset_password_sent_at :datetime</text>
<text text-anchor="start" x="750" y="-658.4" font-family="Times Roman,serif" font-size="14.00">remember_created_at :datetime</text>
<text text-anchor="start" x="750" y="-640.4" font-family="Times Roman,serif" font-size="14.00">sign_in_count :integer</text>
<text text-anchor="start" x="750" y="-622.4" font-family="Times Roman,serif" font-size="14.00">current_sign_in_at :datetime</text>
<text text-anchor="start" x="750" y="-604.4" font-family="Times Roman,serif" font-size="14.00">last_sign_in_at :datetime</text>
<text text-anchor="start" x="750" y="-586.4" font-family="Times Roman,serif" font-size="14.00">current_sign_in_ip :string</text>
<text text-anchor="start" x="750" y="-568.4" font-family="Times Roman,serif" font-size="14.00">last_sign_in_ip :string</text>
<text text-anchor="start" x="750" y="-550.4" font-family="Times Roman,serif" font-size="14.00">facebook_id :string</text>
<text text-anchor="start" x="750" y="-532.4" font-family="Times Roman,serif" font-size="14.00">google_id :string</text>
<text text-anchor="start" x="750" y="-514.4" font-family="Times Roman,serif" font-size="14.00">is_active :boolean</text>
<text text-anchor="start" x="750" y="-496.4" font-family="Times Roman,serif" font-size="14.00">created_at :datetime</text>
<text text-anchor="start" x="750" y="-478.4" font-family="Times Roman,serif" font-size="14.00">updated_at :datetime</text>
</g>
<!-- User&#45;&gt;Article -->
<g id="edge20" class="edge"><title>User&#45;&gt;Article</title>
<path fill="none" stroke="#f2948f" d="M741.846,-462.529C731.713,-449.183 721.618,-435.887 711.835,-423.003"/>
<ellipse fill="none" stroke="#f2948f" cx="744.302" cy="-465.763" rx="4.00002" ry="4.00002"/>
<polygon fill="#f2948f" stroke="#f2948f" points="711.835,-423.002 709.371,-412.316 708.811,-419.019 705.787,-415.037 705.787,-415.037 705.787,-415.037 708.811,-419.019 702.203,-417.758 711.835,-423.002 711.835,-423.002"/>
</g>
<!-- ActiveRecord::Base -->
<g id="node10" class="node"><title>ActiveRecord::Base</title>
<ellipse fill="none" stroke="black" cx="513" cy="-875" rx="104.151" ry="18.3848"/>
<text text-anchor="middle" x="513" y="-871.4" font-family="Times Roman,serif" font-size="14.00">ActiveRecord::Base</text>
</g>
<!-- ActiveRecord::Base&#45;&gt;AdminUser -->
<g id="edge2" class="edge"><title>ActiveRecord::Base&#45;&gt;AdminUser</title>
<path fill="none" stroke="black" d="M475.057,-857.686C453.356,-848.174 425.466,-836.597 400,-828 340.351,-807.864 316.182,-825.691 263,-792 250.437,-784.041 238.444,-774.546 227.157,-764.199"/>
</g>
<!-- ActiveRecord::Base&#45;&gt;Ckeditor::Asset -->
<g id="edge4" class="edge"><title>ActiveRecord::Base&#45;&gt;Ckeditor::Asset</title>
<path fill="none" stroke="black" d="M502.177,-856.585C488.114,-832.659 462.378,-788.872 437.252,-746.124"/>
</g>
<!-- ActiveRecord::Base&#45;&gt;ArticleComment -->
<g id="edge10" class="edge"><title>ActiveRecord::Base&#45;&gt;ArticleComment</title>
<path fill="none" stroke="black" d="M511.546,-856.225C510.321,-839.412 508.664,-814.077 508,-792 499.812,-519.914 488.715,-448.746 532,-180 533.932,-168.005 536.488,-155.372 539.243,-143.144"/>
</g>
<!-- ActiveRecord::Base&#45;&gt;Article -->
<g id="edge14" class="edge"><title>ActiveRecord::Base&#45;&gt;Article</title>
<path fill="none" stroke="black" d="M512.615,-856.377C511.857,-798.019 512.864,-613.903 551,-468 554.191,-455.791 558.207,-443.338 562.701,-431.031"/>
</g>
<!-- ActiveRecord::Base&#45;&gt;Category -->
<g id="edge18" class="edge"><title>ActiveRecord::Base&#45;&gt;Category</title>
<path fill="none" stroke="black" d="M522.908,-856.182C542.171,-819.598 585.296,-737.694 614.015,-683.149"/>
</g>
<!-- ActiveRecord::Base&#45;&gt;User -->
<g id="edge22" class="edge"><title>ActiveRecord::Base&#45;&gt;User</title>
<path fill="none" stroke="black" d="M576.89,-860.223C623.19,-847.391 685.707,-825.52 733,-792 735.996,-789.877 738.965,-787.672 741.906,-785.395"/>
</g>
</g>
</svg>
