<?xml version="1.0" encoding="UTF-8" standalone="no"?>
<!DOCTYPE svg PUBLIC "-//W3C//DTD SVG 1.1//EN"
 "http://www.w3.org/Graphics/SVG/1.1/DTD/svg11.dtd">
<!-- Generated by graphviz version 2.26.3 (20100126.1600)
 -->
<!-- Title: models_diagram Pages: 1 -->
<svg width="1186pt" height="984pt"
 viewBox="0.00 0.00 1186.00 984.00" xmlns="http://www.w3.org/2000/svg" xmlns:xlink="http://www.w3.org/1999/xlink">
<g id="graph1" class="graph" transform="scale(1 1) rotate(0) translate(4 980)">
<title>models_diagram</title>
<polygon fill="white" stroke="white" points="-4,5 -4,-980 1183,-980 1183,5 -4,5"/>
<!-- _diagram_info -->
<g id="node1" class="node"><title>_diagram_info</title>
<text text-anchor="start" x="240" y="-959.8" font-family="Times Roman,serif" font-size="13.00">Models diagram</text>
<text text-anchor="start" x="240" y="-942.8" font-family="Times Roman,serif" font-size="13.00">Date: Jun 05 2014 &#45; 16:17</text>
<text text-anchor="start" x="240" y="-925.8" font-family="Times Roman,serif" font-size="13.00">Migration version: 20140605062650</text>
<text text-anchor="start" x="240" y="-908.8" font-family="Times Roman,serif" font-size="13.00">Generated by RailRoady 1.1.1</text>
<text text-anchor="start" x="240" y="-891.8" font-family="Times Roman,serif" font-size="13.00">http://railroady.prestonlee.com</text>
</g>
<!-- AdminUser -->
<g id="node2" class="node"><title>AdminUser</title>
<polyline fill="none" stroke="black" points="12,-523 242,-523 "/>
<path fill="none" stroke="black" d="M242,-523C248,-523 254,-529 254,-535"/>
<polyline fill="none" stroke="black" points="254,-535 254,-779 "/>
<path fill="none" stroke="black" d="M254,-779C254,-785 248,-791 242,-791"/>
<polyline fill="none" stroke="black" points="242,-791 12,-791 "/>
<path fill="none" stroke="black" d="M12,-791C6,-791 0,-785 0,-779"/>
<polyline fill="none" stroke="black" points="0,-779 0,-535 "/>
<path fill="none" stroke="black" d="M0,-535C0,-529 6,-523 12,-523"/>
<text text-anchor="middle" x="127" y="-774.4" font-family="Times Roman,serif" font-size="14.00">AdminUser</text>
<polyline fill="none" stroke="black" points="0,-765 254,-765 "/>
<text text-anchor="start" x="8" y="-748.4" font-family="Times Roman,serif" font-size="14.00">id :integer</text>
<text text-anchor="start" x="8" y="-730.4" font-family="Times Roman,serif" font-size="14.00">email :string</text>
<text text-anchor="start" x="8" y="-712.4" font-family="Times Roman,serif" font-size="14.00">encrypted_password :string</text>
<text text-anchor="start" x="8" y="-694.4" font-family="Times Roman,serif" font-size="14.00">reset_password_token :string</text>
<text text-anchor="start" x="8" y="-676.4" font-family="Times Roman,serif" font-size="14.00">reset_password_sent_at :datetime</text>
<text text-anchor="start" x="8" y="-658.4" font-family="Times Roman,serif" font-size="14.00">remember_created_at :datetime</text>
<text text-anchor="start" x="8" y="-640.4" font-family="Times Roman,serif" font-size="14.00">sign_in_count :integer</text>
<text text-anchor="start" x="8" y="-622.4" font-family="Times Roman,serif" font-size="14.00">current_sign_in_at :datetime</text>
<text text-anchor="start" x="8" y="-604.4" font-family="Times Roman,serif" font-size="14.00">last_sign_in_at :datetime</text>
<text text-anchor="start" x="8" y="-586.4" font-family="Times Roman,serif" font-size="14.00">current_sign_in_ip :string</text>
<text text-anchor="start" x="8" y="-568.4" font-family="Times Roman,serif" font-size="14.00">last_sign_in_ip :string</text>
<text text-anchor="start" x="8" y="-550.4" font-family="Times Roman,serif" font-size="14.00">created_at :datetime</text>
<text text-anchor="start" x="8" y="-532.4" font-family="Times Roman,serif" font-size="14.00">updated_at :datetime</text>
</g>
<!-- Ckeditor::Asset -->
<g id="node3" class="node"><title>Ckeditor::Asset</title>
<polyline fill="none" stroke="black" points="283.5,-541 454.5,-541 "/>
<path fill="none" stroke="black" d="M454.5,-541C460.5,-541 466.5,-547 466.5,-553"/>
<polyline fill="none" stroke="black" points="466.5,-553 466.5,-761 "/>
<path fill="none" stroke="black" d="M466.5,-761C466.5,-767 460.5,-773 454.5,-773"/>
<polyline fill="none" stroke="black" points="454.5,-773 283.5,-773 "/>
<path fill="none" stroke="black" d="M283.5,-773C277.5,-773 271.5,-767 271.5,-761"/>
<polyline fill="none" stroke="black" points="271.5,-761 271.5,-553 "/>
<path fill="none" stroke="black" d="M271.5,-553C271.5,-547 277.5,-541 283.5,-541"/>
<text text-anchor="middle" x="369" y="-756.4" font-family="Times Roman,serif" font-size="14.00">Ckeditor::Asset</text>
<polyline fill="none" stroke="black" points="271.5,-747 466.5,-747 "/>
<text text-anchor="start" x="279.5" y="-730.4" font-family="Times Roman,serif" font-size="14.00">id :integer</text>
<text text-anchor="start" x="279.5" y="-712.4" font-family="Times Roman,serif" font-size="14.00">data_file_name :string</text>
<text text-anchor="start" x="279.5" y="-694.4" font-family="Times Roman,serif" font-size="14.00">data_content_type :string</text>
<text text-anchor="start" x="279.5" y="-676.4" font-family="Times Roman,serif" font-size="14.00">data_file_size :integer</text>
<text text-anchor="start" x="279.5" y="-658.4" font-family="Times Roman,serif" font-size="14.00">assetable_id :integer</text>
<text text-anchor="start" x="279.5" y="-640.4" font-family="Times Roman,serif" font-size="14.00">assetable_type :string</text>
<text text-anchor="start" x="279.5" y="-622.4" font-family="Times Roman,serif" font-size="14.00">type :string</text>
<text text-anchor="start" x="279.5" y="-604.4" font-family="Times Roman,serif" font-size="14.00">width :integer</text>
<text text-anchor="start" x="279.5" y="-586.4" font-family="Times Roman,serif" font-size="14.00">height :integer</text>
<text text-anchor="start" x="279.5" y="-568.4" font-family="Times Roman,serif" font-size="14.00">created_at :datetime</text>
<text text-anchor="start" x="279.5" y="-550.4" font-family="Times Roman,serif" font-size="14.00">updated_at :datetime</text>
</g>
<!-- Ckeditor::Picture -->
<g id="node4" class="node"><title>Ckeditor::Picture</title>
<polyline fill="none" stroke="black" points="71.5,-190 242.5,-190 "/>
<path fill="none" stroke="black" d="M242.5,-190C248.5,-190 254.5,-196 254.5,-202"/>
<polyline fill="none" stroke="black" points="254.5,-202 254.5,-410 "/>
<path fill="none" stroke="black" d="M254.5,-410C254.5,-416 248.5,-422 242.5,-422"/>
<polyline fill="none" stroke="black" points="242.5,-422 71.5,-422 "/>
<path fill="none" stroke="black" d="M71.5,-422C65.5,-422 59.5,-416 59.5,-410"/>
<polyline fill="none" stroke="black" points="59.5,-410 59.5,-202 "/>
<path fill="none" stroke="black" d="M59.5,-202C59.5,-196 65.5,-190 71.5,-190"/>
<text text-anchor="middle" x="157" y="-405.4" font-family="Times Roman,serif" font-size="14.00">Ckeditor::Picture</text>
<polyline fill="none" stroke="black" points="59.5,-396 254.5,-396 "/>
<text text-anchor="start" x="67.5" y="-379.4" font-family="Times Roman,serif" font-size="14.00">id :integer</text>
<text text-anchor="start" x="67.5" y="-361.4" font-family="Times Roman,serif" font-size="14.00">data_file_name :string</text>
<text text-anchor="start" x="67.5" y="-343.4" font-family="Times Roman,serif" font-size="14.00">data_content_type :string</text>
<text text-anchor="start" x="67.5" y="-325.4" font-family="Times Roman,serif" font-size="14.00">data_file_size :integer</text>
<text text-anchor="start" x="67.5" y="-307.4" font-family="Times Roman,serif" font-size="14.00">assetable_id :integer</text>
<text text-anchor="start" x="67.5" y="-289.4" font-family="Times Roman,serif" font-size="14.00">assetable_type :string</text>
<text text-anchor="start" x="67.5" y="-271.4" font-family="Times Roman,serif" font-size="14.00">type :string</text>
<text text-anchor="start" x="67.5" y="-253.4" font-family="Times Roman,serif" font-size="14.00">width :integer</text>
<text text-anchor="start" x="67.5" y="-235.4" font-family="Times Roman,serif" font-size="14.00">height :integer</text>
<text text-anchor="start" x="67.5" y="-217.4" font-family="Times Roman,serif" font-size="14.00">created_at :datetime</text>
<text text-anchor="start" x="67.5" y="-199.4" font-family="Times Roman,serif" font-size="14.00">updated_at :datetime</text>
</g>
<!-- Ckeditor::Asset&#45;&gt;Ckeditor::Picture -->
<g id="edge6" class="edge"><title>Ckeditor::Asset&#45;&gt;Ckeditor::Picture</title>
<path fill="none" stroke="black" d="M305.494,-540.835C291.781,-516.59 277.146,-491.32 263,-468 253.935,-453.057 244.18,-437.5 234.388,-422.196"/>
</g>
<!-- Ckeditor::AttachmentFile -->
<g id="node5" class="node"><title>Ckeditor::AttachmentFile</title>
<polyline fill="none" stroke="black" points="283.5,-190 454.5,-190 "/>
<path fill="none" stroke="black" d="M454.5,-190C460.5,-190 466.5,-196 466.5,-202"/>
<polyline fill="none" stroke="black" points="466.5,-202 466.5,-410 "/>
<path fill="none" stroke="black" d="M466.5,-410C466.5,-416 460.5,-422 454.5,-422"/>
<polyline fill="none" stroke="black" points="454.5,-422 283.5,-422 "/>
<path fill="none" stroke="black" d="M283.5,-422C277.5,-422 271.5,-416 271.5,-410"/>
<polyline fill="none" stroke="black" points="271.5,-410 271.5,-202 "/>
<path fill="none" stroke="black" d="M271.5,-202C271.5,-196 277.5,-190 283.5,-190"/>
<text text-anchor="middle" x="369" y="-405.4" font-family="Times Roman,serif" font-size="14.00">Ckeditor::AttachmentFile</text>
<polyline fill="none" stroke="black" points="271.5,-396 466.5,-396 "/>
<text text-anchor="start" x="279.5" y="-379.4" font-family="Times Roman,serif" font-size="14.00">id :integer</text>
<text text-anchor="start" x="279.5" y="-361.4" font-family="Times Roman,serif" font-size="14.00">data_file_name :string</text>
<text text-anchor="start" x="279.5" y="-343.4" font-family="Times Roman,serif" font-size="14.00">data_content_type :string</text>
<text text-anchor="start" x="279.5" y="-325.4" font-family="Times Roman,serif" font-size="14.00">data_file_size :integer</text>
<text text-anchor="start" x="279.5" y="-307.4" font-family="Times Roman,serif" font-size="14.00">assetable_id :integer</text>
<text text-anchor="start" x="279.5" y="-289.4" font-family="Times Roman,serif" font-size="14.00">assetable_type :string</text>
<text text-anchor="start" x="279.5" y="-271.4" font-family="Times Roman,serif" font-size="14.00">type :string</text>
<text text-anchor="start" x="279.5" y="-253.4" font-family="Times Roman,serif" font-size="14.00">width :integer</text>
<text text-anchor="start" x="279.5" y="-235.4" font-family="Times Roman,serif" font-size="14.00">height :integer</text>
<text text-anchor="start" x="279.5" y="-217.4" font-family="Times Roman,serif" font-size="14.00">created_at :datetime</text>
<text text-anchor="start" x="279.5" y="-199.4" font-family="Times Roman,serif" font-size="14.00">updated_at :datetime</text>
</g>
<!-- Ckeditor::Asset&#45;&gt;Ckeditor::AttachmentFile -->
<g id="edge8" class="edge"><title>Ckeditor::Asset&#45;&gt;Ckeditor::AttachmentFile</title>
<path fill="none" stroke="black" d="M369,-540.61C369,-502.494 369,-460.167 369,-422.075"/>
</g>
<!-- ArticleComment -->
<g id="node6" class="node"><title>ArticleComment</title>
<polyline fill="none" stroke="black" points="560.5,-1 701.5,-1 "/>
<path fill="none" stroke="black" d="M701.5,-1C707.5,-1 713.5,-7 713.5,-13"/>
<polyline fill="none" stroke="black" points="713.5,-13 713.5,-131 "/>
<path fill="none" stroke="black" d="M713.5,-131C713.5,-137 707.5,-143 701.5,-143"/>
<polyline fill="none" stroke="black" points="701.5,-143 560.5,-143 "/>
<path fill="none" stroke="black" d="M560.5,-143C554.5,-143 548.5,-137 548.5,-131"/>
<polyline fill="none" stroke="black" points="548.5,-131 548.5,-13 "/>
<path fill="none" stroke="black" d="M548.5,-13C548.5,-7 554.5,-1 560.5,-1"/>
<text text-anchor="middle" x="631" y="-126.4" font-family="Times Roman,serif" font-size="14.00">ArticleComment</text>
<polyline fill="none" stroke="black" points="548.5,-117 713.5,-117 "/>
<text text-anchor="start" x="556.5" y="-100.4" font-family="Times Roman,serif" font-size="14.00">id :integer</text>
<text text-anchor="start" x="556.5" y="-82.4" font-family="Times Roman,serif" font-size="14.00">article_id :integer</text>
<text text-anchor="start" x="556.5" y="-64.4" font-family="Times Roman,serif" font-size="14.00">user_id :integer</text>
<text text-anchor="start" x="556.5" y="-46.4" font-family="Times Roman,serif" font-size="14.00">content :text</text>
<text text-anchor="start" x="556.5" y="-28.4" font-family="Times Roman,serif" font-size="14.00">created_at :datetime</text>
<text text-anchor="start" x="556.5" y="-10.4" font-family="Times Roman,serif" font-size="14.00">updated_at :datetime</text>
</g>
<!-- Subscribe -->
<g id="node7" class="node"><title>Subscribe</title>
<polyline fill="none" stroke="black" points="533.5,-595 674.5,-595 "/>
<path fill="none" stroke="black" d="M674.5,-595C680.5,-595 686.5,-601 686.5,-607"/>
<polyline fill="none" stroke="black" points="686.5,-607 686.5,-707 "/>
<path fill="none" stroke="black" d="M686.5,-707C686.5,-713 680.5,-719 674.5,-719"/>
<polyline fill="none" stroke="black" points="674.5,-719 533.5,-719 "/>
<path fill="none" stroke="black" d="M533.5,-719C527.5,-719 521.5,-713 521.5,-707"/>
<polyline fill="none" stroke="black" points="521.5,-707 521.5,-607 "/>
<path fill="none" stroke="black" d="M521.5,-607C521.5,-601 527.5,-595 533.5,-595"/>
<text text-anchor="middle" x="604" y="-702.4" font-family="Times Roman,serif" font-size="14.00">Subscribe</text>
<polyline fill="none" stroke="black" points="521.5,-693 686.5,-693 "/>
<text text-anchor="start" x="529.5" y="-676.4" font-family="Times Roman,serif" font-size="14.00">id :integer</text>
<text text-anchor="start" x="529.5" y="-658.4" font-family="Times Roman,serif" font-size="14.00">email :string</text>
<text text-anchor="start" x="529.5" y="-640.4" font-family="Times Roman,serif" font-size="14.00">is_active :boolean</text>
<text text-anchor="start" x="529.5" y="-622.4" font-family="Times Roman,serif" font-size="14.00">created_at :datetime</text>
<text text-anchor="start" x="529.5" y="-604.4" font-family="Times Roman,serif" font-size="14.00">updated_at :datetime</text>
</g>
<!-- Article -->
<g id="node8" class="node"><title>Article</title>
<polyline fill="none" stroke="black" points="698.5,-181 839.5,-181 "/>
<path fill="none" stroke="black" d="M839.5,-181C845.5,-181 851.5,-187 851.5,-193"/>
<polyline fill="none" stroke="black" points="851.5,-193 851.5,-419 "/>
<path fill="none" stroke="black" d="M851.5,-419C851.5,-425 845.5,-431 839.5,-431"/>
<polyline fill="none" stroke="black" points="839.5,-431 698.5,-431 "/>
<path fill="none" stroke="black" d="M698.5,-431C692.5,-431 686.5,-425 686.5,-419"/>
<polyline fill="none" stroke="black" points="686.5,-419 686.5,-193 "/>
<path fill="none" stroke="black" d="M686.5,-193C686.5,-187 692.5,-181 698.5,-181"/>
<text text-anchor="middle" x="769" y="-414.4" font-family="Times Roman,serif" font-size="14.00">Article</text>
<polyline fill="none" stroke="black" points="686.5,-405 851.5,-405 "/>
<text text-anchor="start" x="694.5" y="-388.4" font-family="Times Roman,serif" font-size="14.00">id :integer</text>
<text text-anchor="start" x="694.5" y="-370.4" font-family="Times Roman,serif" font-size="14.00">user_id :integer</text>
<text text-anchor="start" x="694.5" y="-352.4" font-family="Times Roman,serif" font-size="14.00">title_id :string</text>
<text text-anchor="start" x="694.5" y="-334.4" font-family="Times Roman,serif" font-size="14.00">title_en :string</text>
<text text-anchor="start" x="694.5" y="-316.4" font-family="Times Roman,serif" font-size="14.00">content_id :text</text>
<text text-anchor="start" x="694.5" y="-298.4" font-family="Times Roman,serif" font-size="14.00">content_en :text</text>
<text text-anchor="start" x="694.5" y="-280.4" font-family="Times Roman,serif" font-size="14.00">is_active :boolean</text>
<text text-anchor="start" x="694.5" y="-262.4" font-family="Times Roman,serif" font-size="14.00">viewed :integer</text>
<text text-anchor="start" x="694.5" y="-244.4" font-family="Times Roman,serif" font-size="14.00">slug :string</text>
<text text-anchor="start" x="694.5" y="-226.4" font-family="Times Roman,serif" font-size="14.00">category_id :string</text>
<text text-anchor="start" x="694.5" y="-208.4" font-family="Times Roman,serif" font-size="14.00">created_at :datetime</text>
<text text-anchor="start" x="694.5" y="-190.4" font-family="Times Roman,serif" font-size="14.00">updated_at :datetime</text>
</g>
<!-- Article&#45;&gt;ArticleComment -->
<g id="edge14" class="edge"><title>Article&#45;&gt;ArticleComment</title>
<path fill="none" stroke="#54fbc5" d="M691.051,-173.826C686.676,-166.407 682.35,-159.071 678.144,-151.94"/>
<ellipse fill="none" stroke="#54fbc5" cx="693.12" cy="-177.334" rx="4.00002" ry="4.00002"/>
<polygon fill="#54fbc5" stroke="#54fbc5" points="677.967,-151.64 676.764,-140.741 675.427,-147.333 672.887,-143.027 672.887,-143.027 672.887,-143.027 675.427,-147.333 669.011,-145.313 677.967,-151.64 677.967,-151.64"/>
</g>
<!-- Category -->
<g id="node9" class="node"><title>Category</title>
<polyline fill="none" stroke="black" points="753.5,-595 894.5,-595 "/>
<path fill="none" stroke="black" d="M894.5,-595C900.5,-595 906.5,-601 906.5,-607"/>
<polyline fill="none" stroke="black" points="906.5,-607 906.5,-707 "/>
<path fill="none" stroke="black" d="M906.5,-707C906.5,-713 900.5,-719 894.5,-719"/>
<polyline fill="none" stroke="black" points="894.5,-719 753.5,-719 "/>
<path fill="none" stroke="black" d="M753.5,-719C747.5,-719 741.5,-713 741.5,-707"/>
<polyline fill="none" stroke="black" points="741.5,-707 741.5,-607 "/>
<path fill="none" stroke="black" d="M741.5,-607C741.5,-601 747.5,-595 753.5,-595"/>
<text text-anchor="middle" x="824" y="-702.4" font-family="Times Roman,serif" font-size="14.00">Category</text>
<polyline fill="none" stroke="black" points="741.5,-693 906.5,-693 "/>
<text text-anchor="start" x="749.5" y="-676.4" font-family="Times Roman,serif" font-size="14.00">id :integer</text>
<text text-anchor="start" x="749.5" y="-658.4" font-family="Times Roman,serif" font-size="14.00">name :string</text>
<text text-anchor="start" x="749.5" y="-640.4" font-family="Times Roman,serif" font-size="14.00">slug :string</text>
<text text-anchor="start" x="749.5" y="-622.4" font-family="Times Roman,serif" font-size="14.00">created_at :datetime</text>
<text text-anchor="start" x="749.5" y="-604.4" font-family="Times Roman,serif" font-size="14.00">updated_at :datetime</text>
</g>
<!-- Category&#45;&gt;Article -->
<g id="edge18" class="edge"><title>Category&#45;&gt;Article</title>
<path fill="none" stroke="#04078f" d="M812.955,-586.512C806.43,-544.872 797.95,-490.756 790.182,-441.179"/>
<ellipse fill="none" stroke="#04078f" cx="813.611" cy="-590.701" rx="4.00001" ry="4.00001"/>
<polygon fill="#04078f" stroke="#04078f" points="790.135,-440.882 793.033,-430.306 789.361,-435.942 788.587,-431.002 788.587,-431.002 788.587,-431.002 789.361,-435.942 784.142,-431.699 790.135,-440.882 790.135,-440.882"/>
</g>
<!-- User -->
<g id="node10" class="node"><title>User</title>
<polyline fill="none" stroke="black" points="936,-469 1166,-469 "/>
<path fill="none" stroke="black" d="M1166,-469C1172,-469 1178,-475 1178,-481"/>
<polyline fill="none" stroke="black" points="1178,-481 1178,-833 "/>
<path fill="none" stroke="black" d="M1178,-833C1178,-839 1172,-845 1166,-845"/>
<polyline fill="none" stroke="black" points="1166,-845 936,-845 "/>
<path fill="none" stroke="black" d="M936,-845C930,-845 924,-839 924,-833"/>
<polyline fill="none" stroke="black" points="924,-833 924,-481 "/>
<path fill="none" stroke="black" d="M924,-481C924,-475 930,-469 936,-469"/>
<text text-anchor="middle" x="1051" y="-828.4" font-family="Times Roman,serif" font-size="14.00">User</text>
<polyline fill="none" stroke="black" points="924,-819 1178,-819 "/>
<text text-anchor="start" x="932" y="-802.4" font-family="Times Roman,serif" font-size="14.00">id :integer</text>
<text text-anchor="start" x="932" y="-784.4" font-family="Times Roman,serif" font-size="14.00">email :string</text>
<text text-anchor="start" x="932" y="-766.4" font-family="Times Roman,serif" font-size="14.00">encrypted_password :string</text>
<text text-anchor="start" x="932" y="-748.4" font-family="Times Roman,serif" font-size="14.00">reset_password_token :string</text>
<text text-anchor="start" x="932" y="-730.4" font-family="Times Roman,serif" font-size="14.00">reset_password_sent_at :datetime</text>
<text text-anchor="start" x="932" y="-712.4" font-family="Times Roman,serif" font-size="14.00">remember_created_at :datetime</text>
<text text-anchor="start" x="932" y="-694.4" font-family="Times Roman,serif" font-size="14.00">sign_in_count :integer</text>
<text text-anchor="start" x="932" y="-676.4" font-family="Times Roman,serif" font-size="14.00">current_sign_in_at :datetime</text>
<text text-anchor="start" x="932" y="-658.4" font-family="Times Roman,serif" font-size="14.00">last_sign_in_at :datetime</text>
<text text-anchor="start" x="932" y="-640.4" font-family="Times Roman,serif" font-size="14.00">current_sign_in_ip :string</text>
<text text-anchor="start" x="932" y="-622.4" font-family="Times Roman,serif" font-size="14.00">last_sign_in_ip :string</text>
<text text-anchor="start" x="932" y="-604.4" font-family="Times Roman,serif" font-size="14.00">facebook_id :string</text>
<text text-anchor="start" x="932" y="-586.4" font-family="Times Roman,serif" font-size="14.00">google_id :string</text>
<text text-anchor="start" x="932" y="-568.4" font-family="Times Roman,serif" font-size="14.00">is_active :boolean</text>
<text text-anchor="start" x="932" y="-550.4" font-family="Times Roman,serif" font-size="14.00">provider :string</text>
<text text-anchor="start" x="932" y="-532.4" font-family="Times Roman,serif" font-size="14.00">uid :string</text>
<text text-anchor="start" x="932" y="-514.4" font-family="Times Roman,serif" font-size="14.00">name :string</text>
<text text-anchor="start" x="932" y="-496.4" font-family="Times Roman,serif" font-size="14.00">created_at :datetime</text>
<text text-anchor="start" x="932" y="-478.4" font-family="Times Roman,serif" font-size="14.00">updated_at :datetime</text>
</g>
<!-- User&#45;&gt;Article -->
<g id="edge22" class="edge"><title>User&#45;&gt;Article</title>
<path fill="none" stroke="#210652" d="M918.562,-472.437C917.373,-470.95 916.186,-469.47 915,-468 897.248,-445.986 877.426,-423.027 858.253,-401.548"/>
<ellipse fill="none" stroke="#210652" cx="921.297" cy="-475.881" rx="4.00002" ry="4.00002"/>
<polygon fill="#210652" stroke="#210652" points="858.177,-401.463 854.854,-391.013 854.84,-397.74 851.503,-394.016 851.503,-394.016 851.503,-394.016 854.84,-397.74 848.152,-397.02 858.177,-401.463 858.177,-401.463"/>
</g>
<!-- ActiveRecord::Base -->
<g id="node11" class="node"><title>ActiveRecord::Base</title>
<ellipse fill="none" stroke="black" cx="604" cy="-929" rx="104.151" ry="18.3848"/>
<text text-anchor="middle" x="604" y="-925.4" font-family="Times Roman,serif" font-size="14.00">ActiveRecord::Base</text>
</g>
<!-- ActiveRecord::Base&#45;&gt;AdminUser -->
<g id="edge2" class="edge"><title>ActiveRecord::Base&#45;&gt;AdminUser</title>
<path fill="none" stroke="black" d="M568.142,-911.509C546.305,-901.513 517.581,-889.511 491,-882 392.277,-854.105 350.361,-899.782 263,-846 240.108,-831.907 219.932,-812.383 202.606,-791.199"/>
</g>
<!-- ActiveRecord::Base&#45;&gt;Ckeditor::Asset -->
<g id="edge4" class="edge"><title>ActiveRecord::Base&#45;&gt;Ckeditor::Asset</title>
<path fill="none" stroke="black" d="M569.363,-911.439C542.629,-896.645 505.946,-873.519 480,-846 459.769,-824.542 441.614,-798.755 426.133,-773.226"/>
</g>
<!-- ActiveRecord::Base&#45;&gt;ArticleComment -->
<g id="edge10" class="edge"><title>ActiveRecord::Base&#45;&gt;ArticleComment</title>
<path fill="none" stroke="black" d="M573.679,-911.113C552.295,-896.594 525.347,-873.974 513,-846 445.161,-692.306 488.758,-634.242 513,-468 530.002,-351.405 573.762,-221.41 602.945,-143.208"/>
</g>
<!-- ActiveRecord::Base&#45;&gt;Subscribe -->
<g id="edge12" class="edge"><title>ActiveRecord::Base&#45;&gt;Subscribe</title>
<path fill="none" stroke="black" d="M604,-910.304C604,-871.536 604,-780.872 604,-719.218"/>
</g>
<!-- ActiveRecord::Base&#45;&gt;Article -->
<g id="edge16" class="edge"><title>ActiveRecord::Base&#45;&gt;Article</title>
<path fill="none" stroke="black" d="M633.072,-911.038C654.107,-896.334 681.171,-873.512 695,-846 732.915,-770.57 719.597,-551.353 733,-468 734.921,-456.053 737.181,-443.665 739.616,-431.304"/>
</g>
<!-- ActiveRecord::Base&#45;&gt;Category -->
<g id="edge20" class="edge"><title>ActiveRecord::Base&#45;&gt;Category</title>
<path fill="none" stroke="black" d="M639.665,-911.57C666.607,-896.999 703.078,-874.104 728,-846 760.842,-808.965 785.673,-758.675 801.846,-719.281"/>
</g>
<!-- ActiveRecord::Base&#45;&gt;User -->
<g id="edge24" class="edge"><title>ActiveRecord::Base&#45;&gt;User</title>
<path fill="none" stroke="black" d="M697.328,-920.788C763.007,-911.234 850.373,-890.587 915,-846 917.995,-843.934 920.947,-841.78 923.856,-839.546"/>
</g>
</g>
</svg>
